<svg xmlns="http://www.w3.org/2000/svg" width="24" height="24" fill="#ffffff" viewBox="0 0 24 24">
  <path d="M20.52 3.48A11.82 11.82 0 0 0 12.04 0C5.54 0 .29 5.24.29 11.74c0 2.07.55 4.09 1.59 5.87L0 24l6.55-1.71a11.72 11.72 0 0 0 5.49 1.38h.01c6.5 0 11.75-5.24 11.75-11.74 0-3.13-1.22-6.07-3.28-8.21Zm-8.48 18.7h-.01a9.72 9.72 0 0 1-4.96-1.36l-.36-.21-3.89 1.02 1.04-3.79-.24-.39a9.78 9.78 0 0 1-1.48-5.2c0-5.4 4.4-9.79 9.8-9.79 2.54 0 4.93.99 6.72 2.78a9.48 9.48 0 0 1 2.79 6.71c0 5.4-4.4 9.79-9.91 9.79Zm5.45-7.34c-.3-.15-1.77-.87-2.05-.97-.28-.1-.48-.15-.68.15-.2.3-.78.97-.95 1.17-.17.2-.35.22-.65.07-.3-.15-1.26-.46-2.4-1.46-.89-.79-1.49-1.77-1.66-2.07-.17-.3-.02-.46.13-.61.13-.13.3-.35.45-.52.15-.17.2-.3.3-.5.1-.2.05-.37-.02-.52-.07-.15-.68-1.65-.93-2.25-.24-.58-.49-.5-.68-.51h-.58c-.2 0-.52.07-.8.37-.28.3-1.05 1.02-1.05 2.5s1.08 2.88 1.24 3.08c.15.2 2.13 3.25 5.17 4.56.72.31 1.28.5 1.72.64.72.23 1.38.2 1.9.12.58-.08 1.77-.72 2.02-1.42.25-.7.25-1.3.17-1.42-.07-.12-.27-.2-.57-.35Z"/>
</svg>
